# AST/ASF file generated using VICON BodyLanguage
# -----------------------------------------------
:version 1.10
:name VICON
:units
  mass 1.0
  length 0.45
  angle deg
:documentation
   .ast/.asf automatically generated from VICON data using
   VICON BodyBuilder and BodyLanguage model FoxedUp or BRILLIANT.MOD
:root
   order TX TY TZ RX RY RZ
   axis XYZ
   position 0 0 0  
   orientation 0 0 0 
:bonedata
  begin
     id 1 
     name lhipjoint
     direction 0.570549 -0.739093 0.358072 
     length 2.41801 
     axis 0 0 0  XYZ
  end
  begin
     id 2 
     name lfemur
     direction 0.34202 -0.939693 0  
     length 7.44434  
     axis 0 0 20  XYZ
    dof rx ry rz
    limits (-160.0 20.0)
           (-70.0 70.0)
           (-60.0 70.0)
  end
  begin
     id 3 
     name ltibia
     direction 0.34202 -0.939693 0   
     length 7.60047   
     axis 0 0 20   XYZ
    dof rx
    limits (-10.0 170.0)
  end
  begin
     id 4 
     name lfoot
     direction 0.0909041 -0.249757 0.964032   
     length 2.03437   
     axis -90 7.62852e-016 20   XYZ
    dof rx rz
    limits (-45.0 90.0)
           (-70.0 20.0)
  end
  begin
     id 5 
     name ltoes
     direction 1.53547e-011 -4.2174e-011 1   
     length 1.02054   
     axis -90 7.62852e-016 20   XYZ
    dof rx
    limits (-90.0 20.0)
  end
  begin
     id 6 
     name rhipjoint
     direction -0.558096 -0.746754 0.361784   
     length 2.3932  
     axis 0 0 0  XYZ 
  end
  begin
     id 7 
     name rfemur
     direction -0.34202 -0.939693 0   
     length 7.3886   
     axis 0 0 -20   XYZ
    dof rx ry rz
    limits (-160.0 20.0)
           (-70.0 70.0)
           (-70.0 60.0)
  end
  begin
     id 8 
     name rtibia
     direction -0.34202 -0.939693 0   
     length 7.4839   
     axis 0 0 -20   XYZ
    dof rx
    limits (-10.0 170.0)
 end
 begin
     id 9 
     name rfoot
     direction -0.114619 -0.314914 0.942174   
     length 2.25127  
     axis -90 -7.62852e-016 -20   XYZ
    dof rx rz
    limits (-45.0 90.0)
           (-20.0 70.0)
  end
  begin
     id 10 
     name rtoes
     direction -1.53518e-011 -4.21881e-011 1   
     length 1.11821   
     axis -90 -7.62852e-016 -20   XYZ
    dof rx
    limits (-90.0 20.0)
  end
  begin
     id 11 
     name lowerback
     direction -0.00902269 0.996426 -0.0839821   
     length 2.25052   
     axis 0 0 0   XYZ
    dof rx ry rz
    limits (-20.0 45.0)
           (-30.0 30.0)
           (-30.0 30.0)
  end
  begin
     id 12 
     name upperback
     direction 0.0370973 0.999169 -0.0168941   
     length 2.24876   
     axis 0 0 0   XYZ
    dof rx ry rz
    limits (-20.0 45.0)
           (-30.0 30.0)
           (-30.0 30.0)
  end
  begin
     id 13 
     name thorax
     direction 0.0402726 0.998931 0.0227027   
     length 2.26408   
     axis 0 0 0   XYZ
    dof rx ry rz
    limits (-20.0 45.0)
           (-30.0 30.0)
           (-30.0 30.0)
  end
  begin
     id 14 
     name lowerneck
     direction -0.0733697 0.98508 0.155675   
     length 1.58204   
     axis 0 0 0   XYZ
    dof rx ry rz
    limits (-20.0 45.0)
           (-30.0 30.0)
           (-30.0 30.0)
  end
  begin
     id 15 
     name upperneck
     direction 0.0426554 0.993501 -0.105526   
     length 1.61222   
     axis 0 0 0   XYZ
    dof rx ry rz
    limits (-20.0 45.0)
           (-30.0 30.0)
           (-30.0 30.0)
  end
  begin
     id 16
     name head
     direction 0.020792 0.998384 -0.0528868  
     length 1.61527  
     axis 0 0 0   XYZ
    dof rx ry rz
    limits (-20.0 45.0)
           (-30.0 30.0)
           (-30.0 30.0)
  end
  begin
     id 17 
     name lclavicle
     direction 0.967109 0.155462 -0.201325  
     length 3.59357  
     axis 0 0 0   XYZ
    dof ry rz
    limits (-20.0 10.0)
           (0.0 20.0)
  end
  begin
     id 18 
     name lhumerus
     direction 1 -4.48968e-011 2.38195e-027   
     length 5.38154   
     axis 180 -30 -90   XYZ
    dof rx ry rz
    limits (-60.0 90.0)
           (-90.0 90.0)
           (-90.0 90.0)
  end
  begin
     id 19
     name lradius
     direction 1 -4.48961e-011 4.85371e-027   
     length 3.33312   
     axis 180 -30 -90   XYZ
    dof rx
    limits (-10.0 170.0)
  end
  begin
     id 20
     name lwrist
     direction 1 -4.48961e-011 4.76515e-027   
     length 1.66656   
     axis -3.27502e-015 90 90   XYZ
    dof ry
    limits (-180.0 0.0)
 end
  begin
     id 21 
     name lhand
     direction 1 -4.48951e-011 9.53074e-027   
     length 0.710789   
     axis -6.08098e-015 90 90   XYZ
    dof rx rz
    limits (-90.0 90.0)
           (-45.0 45.0)
  end
  begin
     id 22 
     name lfingers
     direction 1 -4.48953e-011 1.90613e-026   
     length 0.573057   
     axis -1.21619e-014 90 90   XYZ
    dof rx
    limits (0.0 90.0)
  end
  begin
     id 23
     name lthumb
     direction 0.707107 -6.34973e-011 0.707107   
     length 0.822798   
     axis -90 45 -9.86923e-015   XYZ
    dof rx rz
    limits (-45.0 45.0)
           (-45.0 45.0)
  end
  begin
     id 24 
     name rclavicle
     direction -0.9585 0.265289 -0.104398   
     length 3.42039  
     axis 0 0 0   XYZ 
    dof ry rz
    limits (-10.0 20.0)
           (-20.0 0.0)
  end
  begin
     id 25 
     name rhumerus
     direction -1 -4.48977e-011 2.21478e-027  
     length 5.16954   
     axis 180 30 90   XYZ
    dof rx ry rz
    limits (-90.0 60.0)
           (-90.0 90.0)
           (-90.0 90.0)
  end
  begin
     id 26 
     name rradius
     direction -1 -4.48967e-011 5.63677e-027   
     length 3.38287   
     axis 180 30 90   XYZ
    dof rx
    limits (-10.0 170.0)
  end
  begin
     id 27 
     name rwrist
     direction -1 -4.48967e-011 4.76501e-027   
     length 1.69144   
     axis -3.27502e-015 -90 -90   XYZ
    dof ry
    limits (-180.0 0.0)
  end
  begin
     id 28
     name rhand
     direction -1 -4.48902e-011 9.53292e-027   
     length 0.817967   
     axis -6.08098e-015 -90 -90   XYZ
    dof rx rz
    limits (-90.0 90.0)
           (-45.0 45.0)
  end
  begin
     id 29
     name rfingers
     direction -1 -4.49012e-011 1.90561e-026   
     length 0.659466   
     axis -1.21619e-014 -90 -90   XYZ
    dof rx
    limits (0.0 90.0)
  end
  begin
     id 30
     name rthumb
     direction -0.707107 -6.34944e-011 0.707107   
     length 0.946865   
     axis -90 -45 9.86923e-015   XYZ
    dof rx rz
    limits (-45.0 45.0)
           (-45.0 45.0)
  end
:hierarchy
  begin
    root lhipjoint rhipjoint lowerback
    lhipjoint lfemur
    lfemur ltibia
    ltibia lfoot
    lfoot ltoes
    rhipjoint rfemur
    rfemur rtibia
    rtibia rfoot
    rfoot rtoes
    lowerback upperback
    upperback thorax
    thorax lowerneck lclavicle rclavicle
    lowerneck upperneck
    upperneck head
    lclavicle lhumerus
    lhumerus lradius
    lradius lwrist
    lwrist lhand lthumb
    lhand lfingers
    rclavicle rhumerus
    rhumerus rradius
    rradius rwrist
    rwrist rhand rthumb
    rhand rfingers
  end

#!OML:ASF F:\twosubjects\two\wednesday\Session 1\Justin1.ASF
:FULLY-SPECIFIED
:DEGREES
193
root 2.4963 17.8091 -2.61789 -177.095 1.83866 -173.151
lowerback 3.19145 3.53662 7.12419
upperback 0.575159 5.19024 2.77198
thorax -0.830978 2.66043 -1.29927
lowerneck -14.8639 -6.41943 -12.6549
upperneck 15.8656 -7.85267 9.14392
head 8.23766 -3.72279 4.19049
rclavicle -1.86361e-014 -7.67309e-014
rhumerus 21.7888 -3.35008 -76.865
rradius 44.6719
rwrist -31.807
rhand -20.7535 18.0541
rfingers 7.12502
rthumb 5.61239 -11.8516
lclavicle -1.86361e-014 -7.67309e-014
lhumerus -58.4438 23.3847 53.6658
lradius 24.9768
lwrist -12.599
lhand 2.32675 41.5169
lfingers 7.12502
lthumb 27.817 69.478
rfemur 11.8126 2.05897 31.989
rtibia -2.38542e-014
rfoot -6.05011 -0.395124
rtoes 11.6172
lfemur -48.6809 -1.93357 -9.09037
ltibia 27.7597
lfoot -17.314 2.9871
ltoes -23.6777
194
root 2.49522 17.7623 -2.75217 -177.035 2.00517 -172.802
lowerback 3.25751 3.70345 7.29318
upperback 0.553752 5.44067 2.88306
thorax -0.867994 2.78855 -1.28917
lowerneck -14.6816 -6.46198 -12.7583
upperneck 15.7099 -7.94495 9.36421
head 8.17827 -3.75707 4.2729
rclavicle 3.96575e-014 5.40694e-014
rhumerus 22.7077 -3.6084 -76.2582
rradius 45.3577
rwrist -32.4286
rhand -20.934 18.2972
rfingers 7.12502
rthumb 5.43808 -11.613
lclavicle 3.96575e-014 5.40694e-014
lhumerus -59.2471 23.2113 52.6788
lradius 24.8365
lwrist -13.042
lhand 2.4043 41.4095
lfingers 7.12502
lthumb 27.8912 69.3585
rfemur 12.2932 2.05049 32.314
rtibia 3.18055e-014
rfoot -6.07643 -0.191414
rtoes 12.0142
lfemur -49.3486 -0.404048 -10.0471
ltibia 27.4879
lfoot -16.1951 4.07876
ltoes -34.7236
195
root 2.49988 17.7815 -2.87242 -176.873 2.19137 -172.746
lowerback 3.65669 3.87521 7.07735
upperback 0.20193 5.71966 2.9144
thorax -1.45888 2.90123 -1.19709
lowerneck -14.6392 -6.52072 -12.5481
upperneck 16.1387 -8.09036 9.13867
head 8.3115 -3.84536 4.1448
rclavicle -1.20016e-014 1.59028e-015
rhumerus 23.2648 -3.84952 -75.699
rradius 45.744
rwrist -32.6708
rhand -20.6631 19.3484
rfingers 7.12502
rthumb 5.69967 -10.555
lclavicle -1.20016e-014 1.59028e-015
lhumerus -60.1639 22.4308 51.8738
lradius 24.6077
lwrist -13.0281
lhand 2.56674 41.393
lfingers 7.12502
lthumb 28.0465 69.3168
rfemur 12.5414 2.07307 32.3235
rtibia -9.54166e-015
rfoot -6.27032 0.048795
rtoes 11.3306
lfemur -49.9384 -0.353403 -9.91753
ltibia 27.5818
lfoot -16.0475 3.6862
ltoes -32.7214
196
root 2.49505 17.8518 -2.98856 -176.74 2.32235 -172.804
lowerback 3.32111 3.95272 7.20689
upperback 0.387321 5.76227 2.68305
thorax -1.03851 2.9315 -1.46659
lowerneck -14.8036 -6.55269 -12.2298
upperneck 16.0416 -8.18832 9.20691
head 8.30862 -3.8594 4.09923
rclavicle 2.18166e-014 -1.43125e-014
rhumerus 24.5794 -4.17245 -75.6538
rradius 46.1304
rwrist -32.6784
rhand -20.6079 20.1659
rfingers 7.12502
rthumb 5.75292 -9.73603
lclavicle 2.18166e-014 -1.43125e-014
lhumerus -60.341 22.385 50.8604
lradius 24.1946
lwrist -13.2844
lhand 2.64943 41.5741
lfingers 7.12502
lthumb 28.1255 69.4849
rfemur 12.7486 2.04535 32.1242
rtibia -6.36111e-015
rfoot -6.4198 0.395198
rtoes 12.4383
lfemur -50.1061 -1.26738 -9.04299
ltibia 27.4593
lfoot -16.4415 2.92969
ltoes -22.4391
197
root 2.47995 17.8807 -3.12245 -176.723 2.45505 -172.738
lowerback 3.32082 4.00853 7.47893
upperback 0.376556 5.83397 2.51302
thorax -0.999102 2.96272 -1.78914
lowerneck -14.5799 -6.51991 -12.1091
upperneck 15.7253 -8.19955 9.35793
head 8.16602 -3.84786 4.13256
rclavicle -4.19933e-014 3.06128e-014
rhumerus 25.1959 -4.24794 -75.45
rradius 46.9543
rwrist -32.7203
rhand -21.3027 20.6319
rfingers 7.12502
rthumb 5.08207 -9.28714
lclavicle -4.19933e-014 3.06128e-014
lhumerus -61.0304 22.5732 49.3465
lradius 23.7935
lwrist -14.0009
lhand 2.59562 41.7818
lfingers 7.12502
lthumb 28.0741 69.701
rfemur 13.1629 2.00262 32.0456
rtibia 2.54444e-014
rfoot -6.37243 0.683965
rtoes 13.8951
lfemur -50.2287 -1.59591 -8.66286
ltibia 27.3
lfoot -16.5917 3.10125
ltoes -19.1348
198
root 2.46541 17.8571 -3.26272 -176.615 2.63994 -172.879
lowerback 3.24858 4.12149 7.33804
upperback 0.337502 5.96555 2.45241
thorax -0.995152 3.02483 -1.77292
lowerneck -14.4576 -6.59911 -12.0944
upperneck 15.6561 -8.30394 9.27062
head 8.12895 -3.90671 4.08839
rclavicle -3.8763e-014 -2.98177e-014
rhumerus 25.8934 -4.39922 -75.123
rradius 47.6154
rwrist -32.5315
rhand -21.7672 20.8387
rfingers 7.12502
rthumb 4.63353 -9.09061
lclavicle -3.8763e-014 -2.98177e-014
lhumerus -61.8814 22.9128 47.9399
lradius 23.5486
lwrist -14.5585
lhand 2.02443 42.0956
lfingers 7.12502
lthumb 27.528 70.103
rfemur 13.5643 2.01219 31.8083
rtibia -4.77083e-014
rfoot -6.25104 0.782975
rtoes 12.7207
lfemur -50.6156 -1.53692 -8.93531
ltibia 27.1014
lfoot -16.0134 3.82651
ltoes -21.2557
199
root 2.46009 17.8397 -3.39238 -176.425 2.72429 -173.016
lowerback 3.21356 4.22717 6.99718
upperback 0.235371 6.09351 2.48077
thorax -1.10832 3.08289 -1.56458
lowerneck -14.5321 -6.72305 -12.1531
upperneck 15.9622 -8.48227 9.22989
head 8.26539 -4.00112 4.0595
rclavicle -4.32605e-014 -2.22639e-014
rhumerus 26.6659 -4.4666 -74.6024
rradius 48.0348
rwrist -32.9116
rhand -21.9056 20.8461
rfingers 7.12502
rthumb 4.49995 -9.08608
lclavicle -4.32605e-014 -2.22639e-014
lhumerus -62.5761 22.7874 47.1784
lradius 23.3891
lwrist -14.5835
lhand 1.21666 42.3945
lfingers 7.12502
lthumb 26.7552 70.5226
rfemur 13.8628 1.9446 31.5489
rtibia 6.36111e-015
rfoot -6.18284 1.0168
rtoes 12.8202
lfemur -51.0806 -1.46663 -9.22059
ltibia 26.6976
lfoot -14.6944 4.50657
ltoes -24.3932
200
root 2.45728 17.8568 -3.51954 -176.212 2.70047 -172.811
lowerback 3.20153 4.22769 7.07086
upperback 0.100627 6.1083 2.52262
thorax -1.23739 3.08461 -1.56843
lowerneck -14.5612 -6.65401 -12.0081
upperneck 16.0634 -8.41455 9.16052
head 8.28647 -3.9682 4.02134
rclavicle 1.76421e-014 5.56597e-015
rhumerus 27.383 -4.3579 -74.1761
rradius 48.3696
rwrist -33.3823
rhand -21.849 20.9043
rfingers 7.12502
rthumb 4.55459 -9.02672
lclavicle 1.76421e-014 5.56597e-015
lhumerus -63.2568 22.609 46.2581
lradius 23.0842
lwrist -14.6918
lhand 0.956569 42.6591
lfingers 7.12502
lthumb 26.5063 70.825
rfemur 14.0902 1.79862 31.6058
rtibia 3.18055e-014
rfoot -6.0182 1.39753
rtoes 14.8562
lfemur -51.2672 -1.18322 -9.28406
ltibia 26.3462
lfoot -13.809 4.53724
ltoes -25.4609
201
root 2.44502 17.8414 -3.66187 -176.058 2.69408 -172.358
lowerback 3.10864 4.22532 7.56514
upperback 0.0358807 6.13253 2.59251
thorax -1.20898 3.09876 -1.76012
lowerneck -14.4317 -6.63853 -12.0808
upperneck 15.8874 -8.38648 9.22533
head 8.2079 -3.95479 4.06111
rclavicle -1.45361e-014 -5.1684e-015
rhumerus 28.0316 -4.4793 -73.9152
rradius 48.6557
rwrist -33.1174
rhand -21.8128 21.1045
rfingers 7.12502
rthumb 4.58949 -8.82577
lclavicle -1.45361e-014 -5.1684e-015
lhumerus -63.991 22.5633 45.0887
lradius 22.9138
lwrist -14.715
lhand 1.27451 43.0604
lfingers 7.12502
lthumb 26.8106 71.18
rfemur 14.4972 1.66663 31.9602
rtibia -9.54166e-015
rfoot -6.03842 1.67546
rtoes 15.2464
lfemur -51.4443 -0.942668 -9.04859
ltibia 26.1339
lfoot -13.5556 4.70983
ltoes -24.6638
202
root 2.43389 17.828 -3.79508 -176.045 2.90772 -172.099
lowerback 3.31051 4.31764 7.82145
upperback -0.0441792 6.29714 2.61228
thorax -1.36731 3.17398 -1.90412
lowerneck -14.1341 -6.69236 -12.094
upperneck 15.6707 -8.48751 9.27492
head 8.0976 -4.00654 4.07194
rclavicle 8.97264e-014 1.78906e-014
rhumerus 28.4583 -4.73433 -73.7281
rradius 48.9839
rwrist -33.0554
rhand -21.5969 21.4593
rfingers 7.12502
rthumb 4.79798 -8.46639
lclavicle 8.97264e-014 1.78906e-014
lhumerus -64.6379 22.4552 44.0538
lradius 22.7757
lwrist -14.7576
lhand 1.35505 43.4168
lfingers 7.12502
lthumb 26.8876 71.5246
rfemur 14.9609 1.694 32.204
rtibia -2.54444e-014
rfoot -6.18309 1.73028
rtoes 12.0365
lfemur -51.4928 -0.866265 -8.72264
ltibia 26.2087
lfoot -13.674 5.07705
ltoes -21.9796
203
root 2.42941 17.8239 -3.91628 -176.069 3.27677 -172.142
lowerback 3.70708 4.38415 7.62577
upperback -0.165697 6.41972 2.5821
thorax -1.72169 3.21848 -1.87571
lowerneck -13.8595 -6.54277 -11.8025
upperneck 15.5335 -8.32895 9.07545
head 7.96284 -3.94026 3.9835
rclavicle -1.62506e-014 -3.85642e-014
rhumerus 28.8936 -4.65032 -73.6315
rradius 49.3371
rwrist -33.3181
rhand -21.3713 21.4558
rfingers 7.12502
rthumb 5.0158 -8.46484
lclavicle -1.62506e-014 -3.85642e-014
lhumerus -65.2154 22.2714 43.2864
lradius 22.4959
lwrist -14.7579
lhand 0.973645 43.6853
lfingers 7.12502
lthumb 26.5226 71.8487
rfemur 15.2826 1.83626 32.2002
rtibia -4.13472e-014
rfoot -5.95165 1.6552
rtoes 6.91214
lfemur -51.4075 -0.580481 -8.80828
ltibia 26.2186
lfoot -13.6495 5.32761
ltoes -20.9832
204
root 2.41327 17.8217 -4.07529 -175.906 3.30022 -172.442
lowerback 3.17833 4.39469 7.35568
upperback -0.0775356 6.34884 2.48336
thorax -1.35623 3.19467 -1.77479
lowerneck -14.015 -6.49806 -11.7413
upperneck 15.5333 -8.2247 8.92904
head 7.96951 -3.89279 3.93441
rclavicle 1.10201e-013 6.55989e-014
rhumerus 29.6192 -4.60003 -73.4639
rradius 49.4507
rwrist -33.2095
rhand -21.9996 21.0834
rfingers 7.12502
rthumb 4.40916 -8.85074
lclavicle 1.10201e-013 6.55989e-014
lhumerus -65.6859 22.358 42.5703
lradius 22.2662
lwrist -14.9874
lhand 0.690767 43.6483
lfingers 7.12502
lthumb 26.2518 71.8523
rfemur 15.5823 1.6966 31.7833
rtibia -1.59028e-014
rfoot -5.76039 1.7354
rtoes 4.7958
lfemur -51.4583 -0.190716 -9.66758
ltibia 26.1698
lfoot -13.6241 5.08437
ltoes -20.4676
205
root 2.40155 17.8165 -4.22242 -175.627 3.43439 -172.421
lowerback 2.60258 4.49007 7.45372
upperback 0.0846266 6.40505 2.3942
thorax -0.840252 3.24067 -1.85608
lowerneck -14.2191 -6.58712 -11.7505
upperneck 15.359 -8.31633 9.04004
head 7.96393 -3.91581 3.95645
rclavicle -3.13583e-014 -1.41137e-014
rhumerus 30.4836 -4.79075 -73.3481
rradius 49.3467
rwrist -32.9743
rhand -22.4947 20.9667
rfingers 7.12502
rthumb 3.93111 -8.97678
lclavicle -3.13583e-014 -1.41137e-014
lhumerus -66.0913 22.9563 41.2786
lradius 21.9584
lwrist -15.8941
lhand 0.477913 43.4021
lfingers 7.12502
lthumb 26.0481 71.6363
rfemur 15.814 1.70497 31.6861
rtibia -9.54166e-015
rfoot -5.56077 1.87115
rtoes 4.30967
lfemur -51.5841 0.000216727 -9.80658
ltibia 26.1032
lfoot -13.469 5.25706
ltoes -19.6072
206
root 2.38672 17.8198 -4.36493 -175.505 3.6615 -172.482
lowerback 2.33847 4.54627 7.56666
upperback 0.173998 6.43612 2.2146
thorax -0.563574 3.26176 -2.06949
lowerneck -13.7222 -6.4296 -12.1278
upperneck 14.7805 -8.21843 10.0004
head 7.7341 -3.82372 4.36376
rclavicle -2.16427e-014 -1.21259e-014
rhumerus 31.0333 -4.8312 -73.4518
rradius 49.4007
rwrist -33.0186
rhand -22.3879 20.9857
rfingers 7.12502
rthumb 4.0342 -8.95583
lclavicle -2.16427e-014 -1.21259e-014
lhumerus -66.3683 23.0132 40.5227
lradius 21.9617
lwrist -15.7574
lhand 0.302465 44.0199
lfingers 7.12502
lthumb 25.8801 72.2787
rfemur 16.1938 1.77239 31.4741
rtibia 6.36111e-015
rfoot -5.39683 2.08022
rtoes 2.84631
lfemur -51.4397 -0.0837119 -9.72245
ltibia 26.1107
lfoot -13.5741 5.47917
ltoes -19.175
